<svg preserveAspectRatio="none" overflow="visible" style="display: block;" width="24.4113" height="25.0555" viewBox="0 0 24.4113 25.0555" fill="none" xmlns="http://www.w3.org/2000/svg">
<path id="Star 21" d="M11.264 0.663553C11.5801 -0.221186 12.8313 -0.221183 13.1474 0.663556L15.8323 8.1786C15.9305 8.45334 16.1437 8.67152 16.4161 8.77592L23.7692 11.594C24.6254 11.9221 24.6254 13.1334 23.7692 13.4615L16.4161 16.2796C16.1437 16.384 15.9305 16.6022 15.8323 16.8769L13.1474 24.392C12.8313 25.2767 11.5801 25.2767 11.264 24.392L8.57904 16.8769C8.48088 16.6022 8.26763 16.384 7.9952 16.2796L0.642134 13.4615C-0.214043 13.1334 -0.214045 11.9221 0.642132 11.594L7.9952 8.77592C8.26763 8.67152 8.48088 8.45334 8.57904 8.1786L11.264 0.663553Z" fill="#FFE083"/>
</svg>
