<svg width="382" height="103" viewBox="0 0 382 103" fill="none" xmlns="http://www.w3.org/2000/svg">
<path d="M282.299 50.3957C282.07 50.3671 281.841 50.3385 278.906 50.5955C275.971 50.8524 270.337 51.3959 267.821 51.6758C265.304 51.9557 266.076 51.9557 267.69 51.827C269.303 51.6983 271.734 51.4409 273.058 51.3083C274.382 51.1757 274.525 51.1757 274.413 51.2472C274.3 51.3187 273.929 51.4617 272.307 51.8357C270.685 52.2097 267.825 52.8103 266.238 53.1197C264.65 53.4291 264.421 53.4291 265.647 53.0001C266.874 52.5711 269.562 51.7131 271.033 51.2282C272.504 50.7432 272.675 50.6574 272.649 50.6132C272.623 50.569 272.395 50.569 270.26 50.7263C268.126 50.8836 264.093 51.1983 262.531 51.203C261.914 51.2049 264.431 50.2544 266.297 49.7921C266.796 49.6683 266.361 49.6729 264.381 49.9736C262.401 50.2744 258.883 50.8464 257.214 51.1267C255.545 51.4071 255.831 51.3785 258.18 51.0206C260.53 50.6626 264.934 49.9762 268.319 49.594C271.703 49.2118 273.934 49.1546 275.14 49.1537C276.347 49.1529 276.461 49.2101 276.205 49.4254C275.95 49.6408 275.321 50.0126 273.981 50.4902C272.642 50.9677 270.611 51.5397 269.236 51.8916C267.861 52.2435 267.203 52.3579 266.736 52.4168C266.268 52.4757 266.011 52.4757 269.41 51.632C272.81 50.7883 279.874 49.1009 280.968 48.5462C282.062 47.9915 276.971 48.6207 275.506 48.902C274.042 49.1832 276.359 49.0974 277.495 49.0818C278.631 49.0662 278.517 49.1234 274.211 49.7392C269.905 50.355 261.41 51.5276 259.451 51.7313C257.492 51.9349 262.325 51.1341 264.973 50.7216C267.62 50.309 267.935 50.309 265.58 50.6951C263.225 51.0812 258.191 51.8535 253.005 52.6491" stroke="#FF937D" stroke-width="15.7236" stroke-linecap="round" stroke-linejoin="round"/>
<path d="M254.478 52.1291C256.803 51.7556 260.053 51.3491 260.083 51.4063C260.131 51.4961 259.713 51.5779 258.207 51.9515C256.701 52.325 253.984 52.9542 252.37 53.2926C250.756 53.6311 250.327 53.6597 250.349 53.5457C250.371 53.4317 250.857 53.1743 251.494 52.8844C252.13 52.5945 252.903 52.2799 250.197 51.9606C247.492 51.6412 241.286 51.3266 238.56 51.0644C235.835 50.8022 236.779 50.602 238.409 50.4131C240.039 50.2241 242.327 50.0525 243.563 49.9784C244.799 49.9043 244.914 49.9329 244.901 50.0335C244.862 50.3445 244.541 50.5968 244.612 50.7702C244.739 50.8291 245.054 50.8291 246.017 50.7147C246.98 50.6003 248.581 50.3715 250.232 50.1357" stroke="#FF937D" stroke-width="15.7236" stroke-linecap="round" stroke-linejoin="round"/>
<path d="M264.705 41.0354C264.533 41.064 264.362 41.0926 261.857 42.0083C259.352 42.9239 254.518 44.7257 254.288 45.1534C254.057 45.5812 258.576 44.5801 260.99 44.0645C263.403 43.5488 263.575 43.5488 262.133 43.8491C260.691 44.1494 257.631 44.75 255.068 45.1023C252.505 45.4546 250.531 45.5404 249.743 45.4273C248.956 45.3142 249.413 44.9996 250.021 44.6659C252.534 43.2855 253.783 42.9438 254.259 42.6687C255.51 41.9459 257.711 42.3649 258.722 42.4069C259.483 42.4386 256.995 43.3737 256.186 43.5627C255.635 43.6911 255.203 43.8955 254.265 44.1542C253.195 44.4495 251.941 44.8471 251.36 45.036C250.894 45.1875 250.436 45.2527 248.017 45.3251C247.333 45.3455 247.084 45.5708 246.867 45.5712C246.762 45.5714 246.68 45.4572 246.65 45.3558C246.62 45.2544 246.649 45.14 246.721 45.0525C247.054 44.6463 247.657 44.3877 248.15 44.2426C248.675 44.0876 249.304 43.8383 249.682 43.7512C250.056 43.665 248.789 43.9527 248.097 44.0827C247.14 44.2623 246.623 44.386 246.088 44.6456C245.631 44.8675 245.149 45.1071 244.701 45.3103C244.258 45.5108 243.792 45.8871 242.206 46.7091C241.379 47.1383 240.528 47.3899 240.006 47.5494C239.518 47.6988 239.025 48.0538 238.533 48.4585C238.07 48.748 237.266 49.437 236.356 50.2886C236.019 50.6253 235.933 50.7683 235.844 50.9156" stroke="black" stroke-width="15.7236" stroke-linecap="round" stroke-linejoin="round"/>
<path d="M185.224 96.1547C178.421 95.4193 174.274 95.0405 173.667 94.7647C169.946 93.075 181.87 90.3998 182.484 89.9833C184.679 88.495 173.015 90.0182 170.738 87.5028C167.972 84.4476 182.8 76.6226 180.373 76.922C177.945 77.2215 163.146 85.5864 158.371 87.7354C153.597 89.8845 159.296 85.5641 163.473 82.6031C167.65 79.6421 170.132 78.1713 171.686 77.1839C173.24 76.1964 173.792 75.7368 166.676 79.4527C159.561 83.1686 144.761 91.0739 136.999 95.1463C129.237 99.2187 128.962 99.2187 129.141 98.943C129.321 98.6672 129.964 98.1157 133.237 96.2689C136.51 94.4221 142.393 91.2967 145.884 89.5488C149.374 87.8009 150.293 87.5251 147.825 88.8538C145.357 90.1825 139.474 93.124 136.26 94.6853C133.045 96.2466 132.678 96.3385 132.299 96.4332" stroke="#FF937D" stroke-width="3.9309" stroke-linecap="round" stroke-linejoin="round"/>
<path d="M329.36 45.1956C328.588 45.453 327.815 45.7104 322.999 46.6438C318.182 47.5772 309.345 49.1788 304.692 50.0039C300.039 50.829 299.839 50.829 304.212 50.4572C308.585 50.0854 317.537 49.3418 321.948 48.9587C326.359 48.5756 325.959 48.5756 323.436 48.7615C320.913 48.9474 316.28 49.3192 314.908 49.3106C314.133 49.3057 317.831 48.4318 317.905 48.245C317.965 48.0943 317.436 47.9152 316.873 47.7406C316.309 47.5659 315.566 47.4229 309.291 47.3207C303.016 47.2184 291.233 47.1612 288.709 46.8171C286.185 46.473 293.278 45.8438 296.875 45.5483C300.472 45.2528 300.357 45.31 295.865 45.9543C291.373 46.5987 282.507 47.8285 278.04 48.4621C273.572 49.0956 273.773 49.0956 277.351 48.7953C280.929 48.495 287.879 47.8944 291.173 47.6851C294.467 47.4758 293.895 47.676 291.312 48.1223C288.73 48.5687 284.154 49.2551 281.653 49.6087C279.153 49.9623 278.867 49.9623 278.82 49.9766C278.772 49.9909 278.973 50.0195 281.235 49.7911C283.498 49.5628 287.816 49.0766 290.17 48.8261C292.523 48.5756 292.781 48.5756 292.599 48.5899C292.417 48.6042 291.787 48.6328 291.139 48.6623" stroke="#FF937D" stroke-width="15.7236" stroke-linecap="round" stroke-linejoin="round"/>
<path d="M241.304 45.8891C241.505 45.9177 242.024 45.9186 242.732 45.5728C243.233 45.328 243.929 45.2824 244.395 45.11C245.035 44.8733 242.635 44.993 242.173 45.1087C241.71 45.2244 241.249 45.3396 240.786 45.441C240.332 45.5405 239.862 45.6568 239.327 45.8739C238.869 46.0602 238.389 46.1768 237.94 46.4225C237.506 46.6602 236.745 47.0141 236.034 47.2749C235.547 47.4535 235.095 47.7074 234.575 47.9826C234.127 48.2193 233.594 48.6313 232.986 48.8354C232.118 49.1267 230.937 49.9608 230.314 50.1354C229.814 50.2755 229.231 50.4236 228.567 50.5545C227.459 50.7728 226.517 50.7997 225.966 50.8435C225.369 50.8909 224.638 51.2331 223.987 51.3631C223.404 51.4797 222.847 51.6092 222.24 51.7098C221.225 51.8777 220.478 52.0131 219.899 52.1288C219.348 52.239 218.888 52.3598 218.425 52.4612C217.888 52.5789 216.898 52.677 216.043 52.7931C215.14 52.9158 214.728 53.2265 214.38 53.3998C214.071 53.5534 215.186 53.2282 216.67 52.8672C217.407 52.688 218.044 52.4776 218.595 52.2887C219.079 52.123 219.519 51.8415 219.982 51.682C220.22 51.6001 220.502 51.4368 220.662 51.3353C221.254 50.96 219.235 51.7531 218.843 51.7826C218.369 51.8182 219.894 51.5815 220.415 51.4077C220.933 51.2353 221.396 50.9453 221.889 50.8439C222.344 50.7502 222.87 50.6853 223.549 50.6416C224.555 50.5767 226.158 50.0232 227.778 49.3294C228.757 48.9103 229.313 48.8948 229.776 48.8072C230.412 48.6868 231.362 48.2881 231.971 47.9704C232.602 47.6416 233.126 47.4786 233.661 47.2047C233.908 47.0782 234.138 46.9586 234.24 46.9005C234.702 46.6371 232.873 47.1891 231.847 47.4192C231.215 47.5608 230.647 47.8235 229.953 47.983C229.306 48.1317 228.855 48.2864 228.392 48.4021C227.935 48.5163 227.354 48.6608 226.832 48.8354C226.716 48.8644 226.602 48.893 226.471 48.9221C226.341 48.9511 226.198 48.9797 225.877 49.0092" stroke="#FF937D" stroke-width="15.7236" stroke-linecap="round" stroke-linejoin="round"/>
<path d="M210.971 51.7826C210.713 52.0123 210.048 52.3598 209.888 52.4608C209.367 52.7905 211.661 51.9872 212.096 51.5387C212.274 51.3556 212.386 51.1482 212.444 50.9177C212.501 50.6871 212.502 50.4549 212.402 50.2815C212.304 50.1125 211.983 50.1654 211.824 50.0215C211.752 49.9561 211.808 49.8204 211.765 49.7758C211.489 49.4849 210.915 50.1637 210.452 50.3088C209.851 50.4974 209.095 50.7131 208.647 51.0299C208.386 51.2143 208.313 51.5503 208.17 51.7523C208.026 51.9541 207.736 51.9846 207.506 52.0279C207.073 52.1092 206.611 51.611 205.658 51.5798C205.391 51.5711 205.424 52.0123 205.367 52.2433C205.252 52.7071 204.415 52.6198 203.88 52.7355C203.635 52.7932 203.26 52.8512 202.77 52.8946C202.537 52.9093 202.337 52.9093 202.13 52.9093" stroke="#FF937D" stroke-width="7.8618" stroke-linecap="round" stroke-linejoin="round"/>
<path d="M270.425 46.0623C270.597 46.0051 271.944 45.7182 274.337 45.2853C275.466 45.0809 276.444 45.024 280.892 44.0932C285.339 43.1623 293.233 41.3891 297.829 40.3898C302.424 39.3905 303.482 39.2189 304.414 39.1162C307.448 38.7816 308.76 38.6955 308.92 38.6955C309.246 38.6955 308.128 38.7241 306.023 38.8818C304.091 39.0266 300.401 39.2397 298.443 39.3719C296.485 39.5041 296.37 39.5327 294.653 39.576C292.935 39.6193 289.617 39.6765 287.794 39.7203C285.741 39.7696 284.734 39.8221 283.478 39.8364C282.5 39.8476 281.24 40.0804 278.236 40.9887C277.55 41.1962 276.187 41.3241 274.095 41.3388C272.119 41.3528 271.264 40.805 271.12 40.6468C270.521 39.9924 271.783 38.5256 271.827 37.9319C271.848 37.6416 270.923 37.5688 270.239 37.3677C270.034 37.3073 270.08 36.963 269.892 36.8044C269.797 36.7237 269.677 36.6743 271.334 36.6449C272.991 36.6154 276.423 36.6154 278.262 36.5868C280.57 36.5509 281.313 36.2982 281.95 36.2544C282.617 36.2087 283.193 36.1535 285.397 36.1387C287.487 36.1248 291.548 36.2098 293.712 36.2536C296.453 36.309 297.261 36.4126 298.731 36.4564C299.054 36.466 299.168 36.4993 300.242 36.514C301.317 36.5287 303.347 36.5287 304.493 36.543C305.84 36.5599 306.79 36.6154 308.002 36.6297C309.536 36.6478 311.215 36.7593 311.893 36.8174C313.215 36.9306 314.302 37.1632 315.302 37.366C316.338 37.5761 317.741 37.626 318.696 37.8136C319.507 37.944 319.969 38.0021 320.372 38.0164C320.548 38.0307 320.662 38.0593 320.953 38.0888" stroke="#FF937D" stroke-width="7.8618" stroke-linecap="round" stroke-linejoin="round"/>
<path d="M322.513 42.5088C322.742 42.566 323.376 42.9109 323.898 43.1007C324.391 43.2802 325.024 43.2888 325.414 43.1601C325.589 43.1022 325.546 42.774 325.503 42.5985C325.366 42.0367 324.855 41.5294 324.536 40.8933C324.297 40.416 324.534 40.0535 324.536 40.0101C324.54 39.8966 324.08 39.9954 324.146 39.9954C324.212 39.9954 324.699 39.9954 324.878 39.9525C325.057 39.9096 324.914 39.8238 324.711 39.7796C324.509 39.7354 324.251 39.7354 324.219 39.7497C323.685 39.9845 325.486 39.9659 325.978 40.0673C326.489 40.1726 327.304 40.1687 327.885 40.255C328.356 40.3251 328.808 40.4859 329.3 40.616C329.907 40.7766 330.426 40.8898 330.99 41.0207C331.488 41.1362 332.015 41.2088 332.679 41.4818C333.476 41.8095 333.922 42.0165 334.457 42.3056C334.96 42.5774 335.626 42.8537 336.118 43.2008C336.591 43.5342 336.985 43.8937 337.404 44.3414C337.895 44.8661 337.997 45.5977 338.041 46.2615C338.113 47.3579 338.056 48.4577 337.624 49.3517C337.116 50.4043 335.581 50.5672 334.562 50.7276C334.39 50.7547 334.217 50.7423 334.071 50.6851C333.406 50.4237 333.145 49.5601 332.928 48.8529C332.618 47.8424 332.998 46.2407 333.388 45.0408C333.655 44.2226 333.981 43.2351 334.212 42.6119C334.406 42.0888 334.905 41.7305 335.352 41.5559C335.884 41.3485 336.55 41.526 337.086 41.6703C337.66 41.825 338.311 42.1604 339.467 42.7666C340.121 43.1097 340.94 43.6615 341.52 44.1676C342.483 45.0091 342.791 45.511 343.153 46.2173C343.785 47.4518 343.544 48.0244 343.53 48.5448C343.517 49.0505 342.882 49.3539 342.506 49.8015C342.013 50.3892 341.524 50.8272 341.062 51.3325C340.834 51.5807 340.656 51.81 340.627 51.9691C340.551 52.3772 342.349 51.238 343.182 50.5863C344.258 49.7434 343.948 48.2358 344.021 47.4511C344.12 46.3885 343.979 44.88 343.705 44.4458C343.283 43.7784 342.187 43.8963 342.129 43.7377C341.962 43.2839 343.165 43.4621 344.572 43.6051C345.612 43.7108 347.295 44.0342 348.593 44.3102C350.766 44.7722 351.748 45.1946 351.978 45.4963C352.659 46.3868 352.413 47.1854 352.485 47.7072C352.517 47.936 352.414 48.17 352.213 48.3862C351.664 48.7194 350.172 49.1216 348.25 49.4557C347.232 49.5281 345.345 49.6139 343.4 49.7023" stroke="#FF937D" stroke-width="7.8618" stroke-linecap="round" stroke-linejoin="round"/>
<path d="M357.354 51.0888C357.612 50.8583 360.42 50.7421 362.133 50.9003C362.821 50.9639 363.446 51.146 364.226 51.1898C364.781 51.2209 365.525 51.3765 366.997 51.4498C367.929 51.4961 368.79 51.6088 369.613 51.6808C371.04 51.8055 371.91 51.7822 372.648 51.9403C373.16 52.0501 373.673 52.1288 374.237 52.2151C374.487 52.2531 374.715 52.3022 374.674 52.3022C373.211 52.3022 372.061 51.7544 371.468 51.4368C370.671 51.0097 369.378 50.5428 368.436 50.1511C367.608 49.8067 366.376 49.3017 365.503 48.923C364.212 48.3627 362.157 48.4888 360.623 48.2586C359.924 48.1538 359.408 48.0849 358.772 48.0411C358.279 47.9115 357.904 47.7668 357.601 47.6806C357.442 47.6229 357.27 47.5371 356.834 47.4487" stroke="#FF937D" stroke-width="7.8618" stroke-linecap="round" stroke-linejoin="round"/>
<path d="M113.937 100.819C113.516 100.946 112.755 101.115 112.435 101.158C112.414 101.161 112.517 101.074 112.445 101.042C112.168 100.917 111.717 101.052 111.526 101.073C111.001 101.132 112.285 100.63 112.214 100.629C110.772 100.609 110.489 101.22 110.372 101.347C110.337 101.386 110.611 101.391 110.656 101.401C110.74 101.421 110.299 101.496 110.108 101.591C110.046 101.621 110.127 101.707 110.086 101.77C110.045 101.834 109.898 101.897 109.875 101.94C109.852 101.983 109.957 102.004 109.948 102.025C109.939 102.046 109.813 102.067 109.686 102.078C108.731 102.159 113.449 102.068 113.618 102.036C113.784 102.005 113.287 102.025 112.922 101.931C112.689 101.871 114.19 101.648 115.85 101.415C117.511 101.182 119.752 100.909 121.179 100.706C122.605 100.503 123.15 100.378 123.711 100.248" stroke="#FF937D" stroke-width="1.96545" stroke-linecap="round" stroke-linejoin="round"/>
<path d="M333.248 48.575C333.162 48.2596 332.874 47.5666 332.47 47.1183C332.239 46.9308 332.007 46.7566 331.762 46.6267C331.632 46.5825 331.489 46.5825 331.342 46.5825" stroke="#FF937D" stroke-width="7.8618" stroke-linecap="round" stroke-linejoin="round"/>
<path d="M196.497 58.6291C196.411 58.6291 196.325 58.6291 195.037 59.2583C193.749 59.8876 191.261 61.146 190.136 61.7514C189.012 62.3567 189.326 62.2709 191.404 61.3544C193.483 60.4379 197.315 58.6933 200.005 57.58C202.694 56.4668 204.124 56.0377 204.918 55.8167C205.712 55.5957 205.826 55.5957 205.828 55.5957C205.83 55.5957 205.715 55.5957 204.398 56.1106C203.08 56.6254 200.564 57.655 197.937 58.5286C195.311 59.4022 192.651 60.0886 191.066 60.4708C189.481 60.853 189.052 60.9102 188.874 60.8539C188.696 60.7976 188.782 60.626 189.913 59.8226C191.044 59.0191 193.218 57.5891 194.495 56.7952C195.772 56.0013 196.086 55.8869 195.591 56.0425C193.774 56.6124 191.766 57.1835 191.527 57.0422C191.105 56.7923 193.462 56.1573 194.772 55.7331C196.082 55.3089 197.14 55.1087 197.657 55.0627C198.173 55.0168 198.116 55.1312 197.615 55.4475C197.113 55.7639 196.169 56.2787 194.925 56.8442C193.681 57.4097 192.165 58.0103 191.456 58.334C190.747 58.6577 190.89 58.6863 191.421 58.6582C192.87 58.5813 194.011 58.4844 194.328 58.5992C194.465 58.6488 194.474 58.8285 194.46 59.0165C194.429 59.4383 193.758 60.3842 192.405 61.8965C191.661 62.7283 190.652 63.5519 189.165 64.6517C187.677 65.7515 185.703 67.0672 184.487 67.9165C183.27 68.7659 182.869 69.1091 182.935 69.2859C183 69.4627 183.544 69.4627 187.256 68.4188C190.968 67.3748 197.832 65.287 198.079 65.2983C198.326 65.3095 191.748 67.4832 187.53 68.989C183.311 70.4949 181.653 71.2671 180.884 71.6935C180.115 72.1199 180.287 72.1771 185.566 70.891C190.845 69.6048 201.227 66.9736 206.633 65.6181C212.038 64.2626 212.153 64.2626 212.155 64.3198C212.156 64.377 212.042 64.4914 209.337 65.9946C206.633 67.4979 201.342 70.3866 197.1 72.4896C192.859 74.5926 189.827 75.8224 188.423 76.4417C187.018 77.0609 187.333 77.0323 187.657 77.0028" stroke="#FF937D" stroke-width="7.8618" stroke-linecap="round" stroke-linejoin="round"/>
<path d="M16.8489 171.272L17.4654 172.038C96.6016 108.292 161.216 59.7248 227.966 41.0699C294.605 22.4462 363.503 33.6116 451.278 89.7461L451.807 88.9182L452.337 88.0904C364.228 31.7425 294.754 20.3637 227.437 39.177C160.232 57.9591 95.3086 106.81 16.2323 170.507L16.8489 171.272Z" fill="#FF937D"/>
<path d="M118.38 97.1377C118.296 97.3059 117.917 97.6442 117.546 97.9193C117.093 98.2552 116.731 98.5328 116.003 98.945C115.605 99.1703 115.293 99.3795 114.985 99.549C114.503 99.8142 116.495 99.7184 116.761 99.8663C116.225 99.9939 115.503 99.973 115.272 99.9412C115.124 99.9304 114.914 99.9304 114.699 99.9304" stroke="#FF937D" stroke-width="5.89635" stroke-linecap="round" stroke-linejoin="round"/>
<path d="M133.613 90.0919C133.487 90.2176 133.024 90.6175 131.144 92.0259C129.678 93.1231 127.105 94.9005 125.611 95.9122C124.117 96.924 123.761 97.0915 124.08 96.738C124.399 96.3845 125.404 95.5048 127.231 94.13C129.058 92.7552 131.677 90.912 133.067 89.9206C134.458 88.9291 134.542 88.8454 133.161 89.7343C131.78 90.6232 128.931 92.4873 127.422 93.4686C125.912 94.4499 125.828 94.4918 126.162 94.1468C126.496 93.8018 127.25 93.0687 128.277 92.2512C129.305 91.4337 130.582 90.554 131.377 90.0484C132.171 89.5429 132.443 89.4382 132.448 89.5518C132.452 89.6654 132.179 90.0005 130.887 91.1786C129.595 92.3566 127.291 94.3674 126.334 95.3194C125.378 96.2715 125.839 96.1039 126.191 95.9967C126.767 95.8215 127.179 95.8043 127.433 95.8881C128.646 96.2884 125.446 98.5539 125.383 98.7437C125.349 98.8463 125.361 98.9754 125.424 99.0611C125.699 99.4353 126.646 99.2953 127.063 99.2953C128.175 99.2953 124.834 99.3372 124.402 99.4006C123.195 99.5781 122.594 99.4857 122.23 99.5488C121.318 99.7073 124.556 99.5707 124.6 99.4758C124.825 98.9796 123.649 99.2108 123.322 99.1582C122.371 99.0051 123.076 96.5457 123.213 96.3873C123.282 96.3078 123.371 96.2499 123.372 96.249C123.648 96.0419 122.676 96.8389 122.316 97.0731C121.998 97.2796 121.681 97.4952 121.48 97.8237C121.292 98.1304 121.067 98.3838 120.929 98.7332C120.854 98.926 120.855 99.188 120.813 99.3787C120.8 99.4381 120.687 99.36 120.634 99.2857C120.58 99.2115 120.559 99.1277 120.548 99.0008C120.537 98.8738 120.537 98.7062 120.537 98.5336" stroke="#FF937D" stroke-width="7.8618" stroke-linecap="round" stroke-linejoin="round"/>
<path d="M143.895 88.4417C143.874 88.4417 143.853 88.4417 142.24 89.4889C140.627 90.5362 137.422 92.6308 135.614 93.8564C133.806 95.082 133.492 95.3753 133.895 95.0341C134.299 94.693 135.43 93.7085 136.442 92.8767C137.454 92.0449 138.313 91.3956 138.954 90.8203C139.596 90.2449 139.994 89.7631 140.366 89.2532C140.739 88.7432 141.074 88.2195 141.509 87.4785C142.488 85.8074 143.069 84.74 143.122 84.5921C143.144 84.5312 143.029 84.4861 142.923 84.496C142.817 84.5058 142.691 84.5687 140.972 85.7635C139.252 86.9583 135.943 89.2833 134.804 89.8945C133.664 90.5058 134.796 89.3328 135.65 88.5086C136.505 87.6845 137.05 87.2446 137.603 86.8504C139.321 85.6257 139.914 85.1869 140.276 84.9822C140.45 84.8841 140.088 85.4573 139.855 85.6791C139.676 85.8504 138.762 86.7406 137.325 88.1776C136.348 89.1547 135.478 89.918 134.729 90.7105C134.202 91.2663 133.699 91.5505 133.287 91.7933C132.961 91.9857 132.222 92.4372 130.652 93.1855C128.497 94.2127 127.118 94.7463 127.18 94.6104C127.268 94.4157 127.702 94.1185 128.357 93.6631C129.012 93.2077 129.934 92.6422 130.461 92.3299C130.988 92.0176 131.093 91.9758 131.2 91.9326" stroke="#FF937D" stroke-width="7.8618" stroke-linecap="round" stroke-linejoin="round"/>
<path d="M174.57 67.4694C174.456 67.6982 173.71 68.3309 170.911 70.1119C168.833 71.4341 165.281 73.3802 163.197 74.626C161.113 75.8719 160.57 76.3009 160.333 76.5648C160.096 76.8287 160.181 76.9145 161.827 76.3295C163.473 75.7445 166.676 74.486 168.784 73.752C171.764 72.714 173.15 72.6695 173.671 72.741C173.89 72.771 172.728 73.5032 170.53 74.4245C169.079 75.0322 166.815 75.5746 165.265 75.9416C163.716 76.3087 162.915 76.3945 162.617 76.3243C162.319 76.2541 162.547 76.0253 163.681 75.5213C164.814 75.0173 166.844 74.2451 168.134 73.8044C169.423 73.3637 169.909 73.2779 166.913 74.2204C163.918 75.1629 157.425 77.1364 155.196 77.8384C155.127 77.8603 158.211 77.1485 159.509 76.9752C160.09 76.8976 160.521 76.9162 160.756 76.9877C160.992 77.0592 161.02 77.2022 160.563 77.5047C159.234 78.3842 157.618 78.9365 156.022 79.3971C153.573 80.1038 151.807 80.2963 151.632 80.1819C150.142 79.2081 154.923 78.5343 155.069 78.6054C155.513 78.8215 153.776 79.3984 152.494 79.8309C150.01 80.669 148.947 80.4974 147.693 80.8869C147.278 81.016 146.983 81.2488 146.765 81.3788C146.383 81.6074 147.729 80.9636 148.221 80.5433C148.461 80.3382 148.684 80.1524 148.786 80.123C149.328 79.9661 147.878 80.8146 147.358 81.1617C146.83 81.5147 146.176 81.7679 145.61 82.0431C145.326 82.1813 145.075 82.3755 145.002 82.4054C144.238 82.7174 146.169 81.4247 146.876 80.9771C147.876 80.345 149.027 79.9808 149.68 79.6762C150.193 79.4368 150.79 79.0275 151.413 78.7228C151.943 78.4636 152.438 78.1885 152.958 77.9285C153.825 77.4952 154.69 77.0913 155.313 76.7585C155.844 76.4753 156.425 76.1951 156.917 75.8775C157.517 75.4897 157.985 75.1551 158.434 74.8375C158.878 74.523 159.372 74.1446 159.921 73.8694C160.517 73.5705 161.019 73.2484 161.409 72.9451C161.813 72.6316 162.319 72.4684 162.997 72.1651C163.535 71.9245 164.109 71.6312 164.601 71.3703C165.071 71.1217 165.525 70.8217 165.988 70.6479C166.499 70.4561 166.969 70.1284 167.462 69.897C167.93 69.6768 168.385 69.3778 168.92 69.045C169.409 68.7407 170.003 68.3673 170.495 68.0626C170.966 67.7713 171.419 67.5283 172.025 67.2107C172.545 66.9387 172.979 66.6616 173.8 66.1286C174.984 65.3608 175.406 65.1588 175.94 64.9568C176.461 64.7602 176.966 64.5521 178.234 64.0767C179.054 63.7694 179.94 63.4844 180.462 63.2378C180.897 63.0323 181.386 62.9921 181.848 62.8187C182.289 62.6536 182.887 62.6159 183.552 62.544C184.072 62.4878 185.05 62.4426 186.278 62.3707C187.894 62.276 189.129 62.3273 189.474 62.2697C189.82 62.2121 187.823 62.1826 186.042 62.0387C185.396 61.9865 185.001 61.6921 184.238 61.5906C183.117 61.4416 182.256 61.6331 182.054 61.777C181.642 62.0705 181.62 62.6714 181.317 63.3067C181.231 63.4887 181.101 63.6525 180.556 64.8277C180.011 66.0029 179.039 68.1766 178.195 69.7968C177.35 71.4171 176.664 72.4181 176.21 73.0482C175.757 73.6783 175.556 73.9071 175.11 74.3253C174.664 74.7434 173.977 75.3441 171.407 77.0263C168.837 78.7085 164.404 81.4542 160.59 83.9983C156.776 86.5425 153.716 88.8019 151.482 90.7667C149.247 92.7315 147.932 94.3331 147.24 95.2583C146.139 96.7293 145.798 97.5988 145.579 98.0616C145.311 98.6311 146.659 98.5539 147.253 98.5976C148.79 98.711 150.819 98.7272 151.916 98.7853C152.967 98.8409 153.537 98.9586 153.568 99.0305C153.717 99.3839 152.102 99.19 150.774 99.1757C148.924 99.1558 146.325 99.2749 145.437 99.5072C144.805 99.6727 144.21 99.6234 143.574 99.6953C142.711 99.793 141.615 99.7967 140.843 99.8829C139.938 99.9841 138.663 100.027 137.179 100.1C135.847 100.165 134.647 100.374 133.782 100.418C133.549 100.432 133.349 100.461 133.174 100.475C133 100.49 132.857 100.49 132.709 100.49" stroke="#FF937D" stroke-width="7.8618" stroke-linecap="round" stroke-linejoin="round"/>
<path d="M172.49 96.3298C173.377 96.3298 174.263 96.3298 172.275 96.9447C170.286 97.5596 165.395 98.7895 163.877 98.8939C162.358 98.9983 164.36 97.9401 166.593 96.923C168.826 95.906 171.228 94.9622 172.366 94.4903C173.503 94.0184 173.303 94.047 172.671 94.3048C172.038 94.5626 170.98 95.0488 168.419 95.7998C165.857 96.5508 161.824 97.5518 160.047 97.9245C158.27 98.2972 158.871 98.0112 160.367 97.492C161.863 96.9729 164.237 96.2293 165.875 95.789C167.513 95.3487 168.342 95.2343 168.698 95.2612C169.054 95.288 168.911 95.4596 168.565 95.734C167.705 96.4173 166.344 97.1635 164.802 98.0276C164.019 98.4669 163.289 99.0061 163.092 99.2713C162.895 99.5365 163.267 99.5365 164.474 99.3363C165.68 99.1361 167.711 98.7357 168.886 98.5294C170.061 98.3232 170.318 98.3232 170.408 98.3661C170.786 98.5468 169.517 99.2159 169.197 99.5933C169.004 99.8199 170.632 99.6813 171.875 99.6951C172.207 99.6988 171.918 99.852 171.685 99.9252C170.523 100.29 168.481 99.9135 166.397 99.5825C165.032 99.3656 163.026 99.1656 161.422 99.0477C159.819 98.9299 158.675 98.9299 157.471 99.0014C156.266 99.0729 155.037 99.2159 155.704 98.8176C156.372 98.4194 158.975 97.4756 162.117 96.4459C165.26 95.4163 168.864 94.3295 170.978 93.6409C173.091 92.9523 173.606 92.6949 173.8 92.5623C173.994 92.4297 173.851 92.4297 171.103 93.016C168.355 93.6023 163.007 94.775 158.392 95.4791C153.778 96.1833 150.06 96.3835 148.231 96.4724C146.401 96.5612 146.573 96.5326 150.408 95.431C154.243 94.3295 161.736 92.1558 165.768 91.0075C169.8 89.8591 170.143 89.8019 170.162 89.8011C170.182 89.8002 169.867 89.8574 166.559 90.6448C163.251 91.4322 156.959 92.948 153.289 93.7861C149.618 94.6242 148.76 94.7386 148.189 94.7975C147.619 94.8564 147.361 94.8564 147.415 94.6848C147.613 94.0472 148.938 93.416 151.022 92.3803C152.374 91.7086 154.394 90.887 158.199 89.73C162.005 88.573 167.553 87.1429 170.483 86.3777C173.413 85.6124 173.556 85.5552 170.541 86.5124C167.526 87.4697 161.348 89.4431 158.523 90.2023C155.698 90.9616 156.413 90.4467 160.128 88.4226C163.842 86.3985 170.535 82.8806 174.411 80.7823C178.288 78.6841 179.146 78.1121 179.674 77.7745C180.363 77.334 180.95 76.9481 181.614 76.4143C182.464 75.7311 177.749 79.2839 177.804 79.0282C177.891 78.6302 178.432 77.8001 180.284 75.1987C182.135 72.5974 185.367 68.2787 187.075 65.9252C188.783 63.5717 188.869 63.3143 188.813 63.1388C188.757 62.9633 188.556 62.8775 186.423 63.8629C184.289 64.8484 180.228 66.9076 178.879 67.4679C178.452 67.6452 181.637 65.4524 183.369 64.5719C184.019 64.2419 184.187 64.1203 184.332 64.0328C185.212 63.504 180.929 66.6303 180.509 66.6463C180.097 66.6621 180.866 65.566 181.613 64.6313C183.842 61.8425 185.055 61.4042 185.618 61.1866C186.496 60.8468 187.822 60.4525 188.58 60.0747C188.69 60.0197 188.725 59.8736 188.697 59.8004C188.55 59.4114 187.775 59.8701 187.312 60.1015C186.849 60.3329 186.388 60.5635 185.667 60.8954C184.78 61.3033 183.362 62.205 182.459 62.9889C181.773 63.5846 181.448 64.5745 180.999 65.4728C180.801 65.8709 179.808 67.5125 178.307 69.8223C177.731 70.7085 177.492 70.9879 176.774 71.7502C176.055 72.5124 174.854 73.7423 174.064 74.5045C173.273 75.2668 172.93 75.5242 172.01 76.1001C171.089 76.676 169.602 77.5626 168.507 78.1481C167.412 78.7335 166.754 78.9909 166.473 79.1092C166.298 79.1827 166.709 78.9406 169.531 77.2211C172.042 75.6905 176.842 72.9848 179.718 71.4131C182.593 69.8413 183.422 69.5267 183.463 69.5935C183.505 69.6602 182.732 70.1178 175.814 72.5558C168.895 74.9938 155.853 79.3983 148.505 82.0247C141.158 84.6512 139.899 85.3662 146.244 83.8898C152.588 82.4134 166.574 78.724 174.308 76.7518C182.042 74.7797 183.1 74.6367 176.995 76.9083C170.891 79.1798 157.592 83.8703 151.084 86.2438C144.576 88.6172 145.262 88.5314 148.419 87.7722C151.575 87.0129 157.181 85.5829 161.542 84.7032C165.902 83.8235 168.848 83.5375 170.48 83.4188C172.112 83.3001 172.341 83.3573 172.416 83.4439C172.491 83.5306 172.405 83.645 170.788 84.3761C169.171 85.1071 166.024 86.4513 159.77 88.345C153.516 90.2387 144.25 92.6412 140.234 93.4784C136.218 94.3156 137.734 93.5148 142.019 91.901C146.303 90.2873 153.31 87.8848 157.792 86.5042C162.274 85.1236 164.019 84.8376 164.717 84.8046C165.416 84.7717 165.016 85.0005 163.594 85.5188C162.172 86.0371 159.741 86.8379 156.858 87.5936C153.976 88.3494 150.715 89.0358 148.392 89.4466C146.069 89.8574 144.782 89.9718 143.99 90.0021C143.199 90.0325 142.941 89.9753 143.366 89.5883C143.791 89.2013 144.907 88.4863 151.774 85.1292C158.64 81.7721 171.225 75.7946 176.106 73.3302C177.965 72.3913 175.971 71.5608 177.352 69.0024C177.714 68.33 175.501 68.589 174.674 68.6228C173.846 68.6566 173.989 68.3706 174.878 67.6941C175.767 67.0177 177.397 65.9594 178.294 65.3857C179.191 64.812 179.306 64.7548 179.422 64.6538C179.538 64.5528 179.652 64.4098 179.77 64.2625" stroke="#FF937D" stroke-width="7.8618" stroke-linecap="round" stroke-linejoin="round"/>
<path d="M189.737 90.0897C189.594 90.0897 189.451 90.0897 186.846 91.0193C184.241 91.9488 179.179 93.8078 177.457 94.4938C175.736 95.1798 177.509 94.6364 182.184 92.8978C186.858 91.1592 194.38 88.242 194.566 88.0691C194.751 87.8962 187.372 90.556 183.628 91.9405C179.884 93.3251 179.998 93.3537 180.286 93.3541C180.574 93.3545 181.032 93.3259 183.427 93.0395C185.822 92.7531 190.14 92.2097 192.737 91.9297C195.334 91.6498 196.077 91.6498 196.446 91.7356C196.815 91.8214 196.786 91.993 196.5 92.2244C196.213 92.4558 195.67 92.7418 192.444 93.7328C189.218 94.7239 183.327 96.4113 184.067 97.0375C184.807 97.6637 192.357 97.1775 193.902 97.3131C195.446 97.4488 190.756 98.221 190.484 98.6474C190.213 99.0738 194.503 99.131 196.785 99.1891C199.066 99.2471 199.209 99.3043 199.183 99.391C198.987 100.034 198.031 99.7966 197.022 99.8685C195.346 99.988 194.338 99.7966 192.124 99.8538C190.681 99.8911 188.594 100.025 187.433 100.099C185.721 100.207 185.145 100.259 183.269 100.302C181.565 100.341 178.333 100.317 176.582 100.302C174.082 100.23 173.069 100.201 172.709 100.158C172.548 100.143 172.434 100.143 172.316 100.143" stroke="#FF937D" stroke-width="7.8618" stroke-linecap="round" stroke-linejoin="round"/>
<path d="M197.017 75.0093C196.473 75.2095 195.93 75.4097 192.604 76.428C189.278 77.4464 183.186 79.2768 180.205 80.1912C177.224 81.1055 177.539 81.0483 181.347 79.9749C185.156 78.9016 192.449 76.8137 190.944 77.7116C189.438 78.6095 178.913 82.5564 173.034 84.8327C167.154 87.1091 166.239 87.5953 165.796 87.9029C165.353 88.2106 165.41 88.325 165.583 88.3983C165.755 88.4715 166.041 88.5001 169.635 87.3136C173.229 86.1271 180.121 83.7247 183.729 82.487C187.337 81.2494 187.452 81.2494 187.268 81.4067C187.084 81.564 186.597 81.8786 184.473 82.7557C182.35 83.6328 178.603 85.0628 176.387 85.8567C174.171 86.6506 173.599 86.765 173.404 86.7667C173.21 86.7685 173.41 86.654 176.53 85.5655C179.651 84.4769 185.686 82.4177 188.894 81.3426C192.103 80.2675 192.304 80.2389 192.321 80.3099C192.389 80.5893 191.303 81.2442 187.875 83.0538C185.194 84.4693 180.357 86.4079 181.071 86.7108C181.785 87.0137 188.135 85.4979 192.893 84.5883C197.651 83.6787 200.625 83.4213 197.138 84.5757C193.651 85.7302 183.612 88.3042 178.012 89.7017C172.411 91.0993 171.553 91.2423 176.674 89.9002C181.795 88.5582 192.921 85.7267 198.809 84.2538C204.698 82.7808 205.013 82.7522 202.801 83.3238C200.589 83.8954 195.841 85.068 192.123 85.8151C188.404 86.5622 185.859 86.8482 184.304 86.9955C182.75 87.1429 182.264 87.1429 182.056 86.9999C181.849 86.8569 181.935 86.5708 182.322 86.209C182.709 85.8472 183.396 85.4182 186.123 84.1103C188.851 82.8025 193.598 80.6289 196.988 79.2231C200.378 77.8173 202.265 77.2453 200.163 78.252C198.061 79.2586 191.912 81.8613 188.873 83.1591C185.834 84.457 186.091 84.3712 186.61 84.1554C187.901 83.5964 189.268 83.1284 190.221 82.955C190.601 82.8961 190.773 82.8961 190.95 82.8961" stroke="#FF937D" stroke-width="7.8618" stroke-linecap="round" stroke-linejoin="round"/>
<line x1="196.545" y1="93.3588" x2="389.159" y2="93.3588" stroke="#FF937D" stroke-width="84.5144"/>
<path d="M261.828 48.8455C265.995 47.3696 269.097 46.3054 270.436 45.845C270.827 45.7103 270.602 45.6885 269.34 45.8404C268.078 45.9923 265.777 46.2962 262.595 46.9302C259.413 47.5643 255.419 48.5193 253.254 49.0546C251.088 49.59 250.871 49.6768 251.432 49.6999C251.993 49.7229 253.338 49.6795 255.442 49.3532C257.546 49.027 260.368 48.4193 262.342 48.0411C264.317 47.6629 265.359 47.5327 265.787 47.4656C266.215 47.3985 265.998 47.3985 264.953 47.5722C263.908 47.7458 262.041 48.0931 259.018 48.8363C255.994 49.5795 251.87 50.7081 249.876 51.2027C247.882 51.6973 248.142 51.5237 249.818 50.9784C251.493 50.4332 254.575 49.5216 256.662 48.9869C258.749 48.4522 259.747 48.3219 261.26 47.9727C262.773 47.6235 264.769 47.0591 267.73 46.5297C270.69 46.0002 274.554 45.5227 276.869 45.2767C279.185 45.0308 279.836 45.0308 276.091 45.5951C272.346 46.1594 264.185 47.288 260.177 47.9346C256.168 48.5811 256.559 48.7113 259.647 49.1691C262.734 49.6268 268.508 50.4082 267.337 50.9844C266.165 51.5605 257.874 51.9078 253.972 51.9131C250.07 51.9183 250.808 51.571 251.926 51.2402C253.044 50.9094 254.52 50.6055 258.666 50.3839C262.812 50.1622 269.584 50.032 268.927 50.0734C268.27 50.1149 259.979 50.3319 255.838 50.4654C251.697 50.5989 251.957 50.6424 255.108 50.5996C258.259 50.5569 264.293 50.4266 267.228 50.4029C270.163 50.3793 269.815 50.4661 269.094 50.5759C268.372 50.6858 267.287 50.816 264.558 50.8614C261.828 50.9068 257.487 50.8633 254.556 50.6891C251.626 50.5148 250.237 50.2109 249.434 50.011C248.632 49.811 248.458 49.7242 248.825 49.2237C249.191 48.7232 250.102 47.8116 252.048 46.821C253.993 45.8305 256.945 44.7887 259.681 43.9916C262.417 43.1944 264.848 42.6735 266.296 42.3835C267.744 42.0934 268.134 42.05 268.791 41.9191C269.448 41.7882 270.36 41.5712 268.03 41.9803C265.699 42.3894 260.1 43.4312 257.475 43.9679C254.851 44.5046 255.372 44.5046 258.136 44.2441C260.901 43.9837 265.893 43.4628 264.796 43.52C263.7 43.5772 256.364 44.2283 252.303 44.6289C248.241 45.0294 247.677 45.1597 247.212 45.2268C246.748 45.2938 246.401 45.2938 249.13 44.9032C251.86 44.5125 257.677 43.7311 261.585 43.003C265.493 42.2749 267.316 41.6238 267.235 41.5271C267.154 41.4304 265.114 41.9079 262.435 42.2624C259.756 42.6169 256.501 42.834 255.149 42.7071C253.797 42.5801 254.449 42.1026 255.196 41.6396C255.944 41.1766 256.769 40.7425 258.236 40.215C259.702 39.6875 261.786 39.0798 263.163 38.7233C265.132 38.2136 266.512 38.0169 266.979 37.7755C267.227 37.6473 265.406 37.7512 262.804 38.2076C260.201 38.6641 256.338 39.5323 254.847 39.871C253.932 40.0788 257.521 39.6375 259.17 39.8776C259.464 39.9203 259.589 39.9874 259.396 40.1834C258.766 40.8222 257.06 41.5186 254.96 42.2848C253.078 42.9714 251.66 43.0576 250.807 42.7755C248.849 42.1279 248.811 40.3005 248.128 39.5086C247.815 39.1456 247.491 38.893 247.251 38.6963C247.13 38.5978 247.053 38.4563 247.291 38.2372C247.994 37.5882 250.063 37.2277 252.32 36.9646C254.5 36.7104 256.256 36.1753 257.526 35.7366C258.464 35.4127 259.889 35.0809 263.327 34.8369C265.851 34.6577 266.823 34.0693 266.742 34.1989C266.476 34.625 264.925 34.7625 263.667 35.2677C262.41 35.7728 261.281 36.3805 259.983 37.2145C257.197 39.0054 255.3 40.3373 254.403 40.6004C253.192 40.9555 252.015 40.8214 251.023 40.6037C250.067 40.394 249.992 39.4639 249.574 39.0035C249.153 38.5385 248.545 38.3668 247.756 38.1912C247.319 38.1037 246.922 38.059 246.55 38.0373C246.352 38.0156 246.135 37.9722 245.648 37.7959" stroke="#FF937D" stroke-width="3.9309" stroke-linecap="round" stroke-linejoin="round"/>
</svg>
